# xmcd CD database file
#
# Track frame offsets:
#	150
#	25540
#	45196
#	64617
#	84232
#	103601
#	122738
#	141790
#	163498
#	178948
#	192759
#	211522
#
# Disc length: 3036 seconds
#
# Revision: 0
# Processed by: cddbd v1.5.2PL0 Copyright (c) Steve Scherf et al.
# Submitted via: CDex 1.70beta2
#
DISCID=950bda0c
DTITLE=Delmar Brown - Inner Spirit
DYEAR=2008
DGENRE=Jazz
TTITLE0=The Land Of Plenty
TTITLE1=Fragile
TTITLE2=My World
TTITLE3=Redemption Song
TTITLE4=Seasons
TTITLE5=Fire and Rain
TTITLE6=My Heart Your Heart
TTITLE7=What's Going On
TTITLE8=A Change Is Gonna Come
TTITLE9=Unspoken Voices
TTITLE10=Soldiers
TTITLE11=Amen
EXTD=YEAR: 2008
EXTT0=
EXTT1=
EXTT2=
EXTT3=
EXTT4=
EXTT5=
EXTT6=
EXTT7=
EXTT8=
EXTT9=
EXTT10=
EXTT11=
PLAYORDER=
